<svg viewBox="0 0 576 90.61" xmlns="http://www.w3.org/2000/svg"><g transform="translate(-233.25 -475.48)"><path d="m377.79 511.77-12.57 31.06h-3.49l-12.58-31.06h3.79l10.7 26.63 10.52-26.53z" fill="#626366"/><path d="m269.51 520.89-5.86 14.48h-1.65l-5.87-14.48h1.77l5 12.42 4.91-12.38z" fill="#626366"/><path d="m389.36 511.63h3.33v31.37h-3.33z" fill="#626366"/><path d="m441.51 511.63h3.49v31.37h-3.47z" fill="#626366"/><path d="m493.11 511.63h3.33v31.37h-3.33z" fill="#626366"/><path d="m752.84 511.63h3.07v31.37h-3.07z" fill="#929497"/><path d="m410.77 543a36.55 36.55 0 0 1 -5.49-2.09v-3.7a17.35 17.35 0 0 0 5 2.35 23.23 23.23 0 0 0 6.74.92q4.05 0 6-1.47a4.68 4.68 0 0 0 2-4 4.24 4.24 0 0 0 -1.16-3.06 8.46 8.46 0 0 0 -2.78-1.91q-1.61-.67-4.83-1.73a43.6 43.6 0 0 1 -5.46-1.9 9.37 9.37 0 0 1 -3.47-2.66 7.06 7.06 0 0 1 -1.45-4.66 7.2 7.2 0 0 1 1.14-3.8 8.63 8.63 0 0 1 3.66-3.09 15 15 0 0 1 6.53-1.23 19.74 19.74 0 0 1 4.8.48 37.09 37.09 0 0 1 4.91 1.75v3.52l-2.08-1a14.53 14.53 0 0 0 -3.5-1.21 18.53 18.53 0 0 0 -3.91-.38q-3.83 0-5.66 1.35a4.07 4.07 0 0 0 -1.83 3.4 4.44 4.44 0 0 0 1 3 6.87 6.87 0 0 0 2.61 1.85 37.81 37.81 0 0 0 4.63 1.57 46.05 46.05 0 0 1 5.63 2 10.63 10.63 0 0 1 3.75 2.78 6.85 6.85 0 0 1 1.55 4.61 8.26 8.26 0 0 1 -2.91 6.37q-2.91 2.61-9.35 2.61a24.25 24.25 0 0 1 -6.07-.67z" fill="#626366"/><path d="m467.64 514.71h-12.39v-3.23h27.81v3.23h-12.35v28.41h-3.07z" fill="#626366"/><path d="m537.84 511.48v31.64h-3.84l-19.11-26.66v26.66h-3.49v-31.64h3.93l19.06 26.66v-26.66z" fill="#626366"/><path d="m651.47 511.49h21.28v3.22h-17.64v10.91h15.52v3.31h-15.52v11h17.64v3.22h-21.28z" fill="#929497"/><path d="m699.34 511.48h10.48q7.81 0 11.76 4t3.93 11.84q0 15.84-15.69 15.84h-10.48zm10.23 28.41q6.36 0 9.3-3t2.93-9.58q0-6.56-2.93-9.58t-9.3-3h-6.63v25.23z" fill="#929497"/><path d="m801.72 533.2h-13.8l-3.84 9.8h-3.74l12.75-31.34h3.45l12.71 31.34h-3.69zm-1.29-3.2-5.61-14.33-5.61 14.33z" fill="#929497"/><path d="m554 527.3a16 16 0 0 0 .86 5.48 12.8 12.8 0 0 0 2.33 4.07 9.87 9.87 0 0 0 3.43 2.54 10 10 0 0 0 4.14.87 7.81 7.81 0 0 0 2.51-.41 9.9 9.9 0 0 0 2.38-1.16 11.74 11.74 0 0 0 2.1-1.77 12.63 12.63 0 0 0 1.69-2.22 13.34 13.34 0 0 0 1.14-2.53 10.48 10.48 0 0 0 .47-2.7h-7.37v-2.8h10.54v15.61h-2l-1-5.31a13.42 13.42 0 0 1 -1.95 2.25 15 15 0 0 1 -2.53 1.94 14.45 14.45 0 0 1 -2.89 1.38 9.38 9.38 0 0 1 -3 .52 14 14 0 0 1 -5.89-1.21 13.18 13.18 0 0 1 -4.46-3.34 15 15 0 0 1 -2.84-5 18.94 18.94 0 0 1 -1-6.21 18.06 18.06 0 0 1 .42-3.87 17.23 17.23 0 0 1 1.24-3.69 15.66 15.66 0 0 1 2-3.24 13.21 13.21 0 0 1 2.68-2.6 12.77 12.77 0 0 1 3.44-1.73 13 13 0 0 1 4.11-.63 16.25 16.25 0 0 1 5 .71 12.43 12.43 0 0 1 3.82 2 11.57 11.57 0 0 1 2.73 3 14.44 14.44 0 0 1 1.7 3.79h-3.52a10.13 10.13 0 0 0 -3.6-5 10.59 10.59 0 0 0 -6.12-1.63 9 9 0 0 0 -4.28 1 10.82 10.82 0 0 0 -3.36 2.82 13.2 13.2 0 0 0 -2.19 4.12 15.53 15.53 0 0 0 -.73 4.95z" fill="#626366"/><path d="m596.85 511.64 10.78 22 11-22h4.69v31.36h-3.64v-25.75l-10.24 21h-3.26l-10.43-21v25.75h-3.64v-31.36z" fill="#929497"/><path d="m312 521.42 4.86 9.92 5-9.92h2.14v14.11h-1.64v-11.53l-4.61 9.47h-1.47l-4.7-9.47v11.58h-1.64v-14.16z" fill="#626366"/><path d="m286.44 485.07h-3v6.34h3v-.75h-2.39v-2h2.39v-.75h-2.39v-2.05h2.39z" fill="#626366"/><path d="m291.3 489.58a2.16 2.16 0 0 1 -.12.71 1.79 1.79 0 0 1 -.34.59 1.72 1.72 0 0 1 -.57.41 1.87 1.87 0 0 1 -.78.15 3 3 0 0 1 -.89-.12 3.73 3.73 0 0 1 -.79-.37v-1a2.4 2.4 0 0 0 .79.6 2.08 2.08 0 0 0 .85.21 1.22 1.22 0 0 0 .87-.29 1 1 0 0 0 .32-.75 1 1 0 0 0 -.15-.6.94.94 0 0 0 -.45-.3 3.29 3.29 0 0 0 -.5-.14 5.08 5.08 0 0 1 -.56-.14 1.52 1.52 0 0 1 -.89-.59 1.79 1.79 0 0 1 -.3-1.08 1.67 1.67 0 0 1 .49-1.26 1.62 1.62 0 0 1 1.22-.5 2.65 2.65 0 0 1 .87.13 3.09 3.09 0 0 1 .71.3v1a2.09 2.09 0 0 0 -.68-.49 2 2 0 0 0 -.87-.19 1.08 1.08 0 0 0 -.77.27.89.89 0 0 0 -.3.7 1.07 1.07 0 0 0 .15.6.93.93 0 0 0 .51.33c.13 0 .32.09.56.14s.44.11.61.17a1.51 1.51 0 0 1 .76.55 1.75 1.75 0 0 1 .25.96z" fill="#626366"/><path d="m296 485.93h-1.62v5.4h-.61v-5.4h-1.62v-.73h3.85z" fill="#626366"/><path d="m297 491.33h-.73v-1.17h.73z" fill="#626366"/><path d="m285 502.91h-3.69v-1l.77-.81q.39-.4.72-.81a8 8 0 0 0 1-1.34 2.29 2.29 0 0 0 .26-1.07 1.13 1.13 0 0 0 -.28-.82 1 1 0 0 0 -.78-.29 2 2 0 0 0 -.72.14 2.82 2.82 0 0 0 -.76.44v-.95a3.32 3.32 0 0 1 .69-.29 3.18 3.18 0 0 1 .84-.13 1.72 1.72 0 0 1 1.31.5 1.9 1.9 0 0 1 .48 1.36 3.22 3.22 0 0 1 -.08.71 2.48 2.48 0 0 1 -.23.63 4.65 4.65 0 0 1 -.34.56c-.13.18-.28.38-.46.6s-.53.62-.81.92l-.78.82h2.86z" fill="#626366"/><path d="m295.2 502.91h-3.57v-.69h1.37v-4.51h-1.37v-.62a4.41 4.41 0 0 0 .6 0 1.45 1.45 0 0 0 .48-.14.9.9 0 0 0 .32-.29.87.87 0 0 0 .14-.47h.68v6.07h1.35z" fill="#626366"/><path d="m301.23 499.51a4.75 4.75 0 0 1 -.58 2.66 2.3 2.3 0 0 1 -3.58 0 6.47 6.47 0 0 1 0-5.29 2 2 0 0 1 1.79-.86 2 2 0 0 1 1.79.87 4.87 4.87 0 0 1 .58 2.62zm-1.23 2.05a2.92 2.92 0 0 0 .22-.86 10 10 0 0 0 .06-1.19 10.12 10.12 0 0 0 -.06-1.19 2.76 2.76 0 0 0 -.22-.86 1.3 1.3 0 0 0 -.44-.53 1.38 1.38 0 0 0 -.71-.17 1.42 1.42 0 0 0 -.72.17 1.26 1.26 0 0 0 -.44.54 2.62 2.62 0 0 0 -.22.87c0 .36-.05.75-.05 1.18a10 10 0 0 0 .05 1.18 2.72 2.72 0 0 0 .21.85 1.23 1.23 0 0 0 .43.54 1.35 1.35 0 0 0 .74.18 1.41 1.41 0 0 0 .71-.17 1.14 1.14 0 0 0 .44-.54z" fill="#626366"/><path d="m290.77 499.51a4.83 4.83 0 0 1 -.58 2.66 2.3 2.3 0 0 1 -3.58 0 4.84 4.84 0 0 1 -.57-2.64 4.75 4.75 0 0 1 .58-2.65 2.28 2.28 0 0 1 3.58 0 4.87 4.87 0 0 1 .57 2.63zm-1.21 2.05a2.92 2.92 0 0 0 .22-.86 10.25 10.25 0 0 0 .05-1.19 10.35 10.35 0 0 0 -.05-1.19 2.75 2.75 0 0 0 -.23-.86 1.2 1.2 0 0 0 -.43-.53 1.59 1.59 0 0 0 -1.43 0 1.21 1.21 0 0 0 -.45.54 2.92 2.92 0 0 0 -.21.87 10.68 10.68 0 0 0 -.06 1.18v1.18a3 3 0 0 0 .22.85 1.17 1.17 0 0 0 .43.54 1.32 1.32 0 0 0 .73.18 1.42 1.42 0 0 0 .72-.17 1.14 1.14 0 0 0 .49-.54z" fill="#626366"/><path d="m290.64 566.08a45.3 45.3 0 1 1 45.3-45.3 45.36 45.36 0 0 1 -45.3 45.3zm0-89.44a44.14 44.14 0 1 0 44.13 44.14 44.19 44.19 0 0 0 -44.13-44.14z" fill="#626366"/></g><path d="m57.28 61.4-.41-.4-56.87-56.2.82-.83 56.46 55.79 56.67-55.9.83.83z" fill="#626366"/><path d="m290.05 464.4h1.17v113.43h-1.17z" fill="#626366" transform="matrix(.70562427 -.70858619 .70858619 .70562427 -516.95 -116.14)"/><path d="m235.27 520.59h110.74v1.17h-110.74z" fill="#626366" transform="matrix(.70907864 -.70512941 .70512941 .70907864 -516.2 -118.9)"/></svg>